<svg width="104.25" height="48" viewBox="0 0 556 256" fill="none" xmlns="http://www.w3.org/2000/svg">
  <title>AI, Databases</title>
  <!-- AI chip -->
  <rect width="256" height="256" rx="60" fill="#242938"/>
  <g stroke="#C078F8" stroke-width="12" stroke-linecap="round" stroke-linejoin="round" fill="none">
    <rect x="64" y="64" width="128" height="128" rx="18"/>
    <path d="M96 30 V50 M128 30 V50 M160 30 V50"/>
    <path d="M96 206 V226 M128 206 V226 M160 206 V226"/>
    <path d="M30 96 H50 M30 128 H50 M30 160 H50"/>
    <path d="M206 96 H226 M206 128 H226 M206 160 H226"/>
  </g>
  <g stroke="#C078F8" stroke-width="14" stroke-linecap="round" stroke-linejoin="round" fill="none">
    <path d="M92 160 L114 96 L136 160"/>
    <path d="M102 137 H126"/>
    <path d="M158 96 V160"/>
  </g>
  <!-- Databases -->
  <rect x="300" width="256" height="256" rx="60" fill="#242938"/>
  <g stroke="#5FA8F5" stroke-width="16" stroke-linecap="round" fill="none">
    <ellipse cx="428" cy="80" rx="72" ry="26"/>
    <path d="M356 80 V176 A72 26 0 0 0 500 176 V80"/>
    <path d="M356 128 A72 26 0 0 0 500 128"/>
  </g>
</svg>
